<svg id="Layer_1" data-name="Layer 1" xmlns="http://www.w3.org/2000/svg" viewBox="0 0 80 80"><defs><style>.cls-1{fill:#fff;}.cls-2{fill:#f1f2f2;}</style></defs><path class="cls-1" d="M22.56,39.49h17L31,13.42Zm14.66-1.73H24.9L31,18.87Z"/><path class="cls-1" d="M38.53,49.08H19.41L16,59.62h-13L24.14,2.23H38L50.85,37c.52-.21,1-.42,1.58-.59L39.15.5H23L.5,61.35H17.17l3.45-10.54H37.85C38.05,50.23,38.28,49.65,38.53,49.08Z"/><path class="cls-2" d="M59.25,39.47C69.59,39.47,78,48.11,78,58.74A19,19,0,0,1,59.25,78c-10.33,0-18.74-8.64-18.74-19.26s8.41-19.27,18.74-19.27m0-1.5A20.77,20.77,0,1,0,79.5,58.74,20.51,20.51,0,0,0,59.25,38Z"/><path class="cls-1" d="M69.45,67.25l-4-4.07a.59.59,0,0,0-.85,0l-.16.16-1.09-1.12a8.73,8.73,0,0,0,2.08-5.66,8.39,8.39,0,1,0-8.39,8.59,8.24,8.24,0,0,0,5.65-2.23L63.8,64l-.16.17a.63.63,0,0,0,0,.87l4,4.07a1.3,1.3,0,0,0,1.84,0A1.37,1.37,0,0,0,69.45,67.25ZM57.07,63.84a7.29,7.29,0,1,1,7.12-7.28A7.19,7.19,0,0,1,57.07,63.84Z"/></svg>